#Comment line ignore any data following # character 
#Hierarchical Translation and Rotation (.htr) file 
[Header]	
#Header keywords are followed by a single value 
FileType HTR		#Single word string
DataType HTRS		#Translation followed by rotation and scale data
FileVersion 1		#integer
NumSegments 84		#integer
NumFrames 2		#integer
DataFrameRate 30		#integer, data frame rate in this file
EulerRotationOrder ZYX
CalibrationUnits mm
RotationUnits Degrees
GlobalAxisofGravity Y
BoneLengthAxis Y
ScaleFactor 1.00
[SegmentNames&Hierarchy]
#CHILD	PARENT
MASTER GLOBAL
root MASTER
chest root
L_mid_tent01 root
R_mid_tent01 root
spine01 root
Bip01_Neck chest
L_humerus chest
R_humerus chest
weapon_bone chest
Bip01_Head Bip01_Neck
eye_left_bone Bip01_Head
eye_right_bone Bip01_Head
L_forearm L_humerus
L_front_hand L_forearm
L_weapon_bone L_forearm
L_front_hand01_01 L_front_hand
L_front_hand02_01 L_front_hand
L_front_hand03_01 L_front_hand
L_front_hand01_02 L_front_hand01_01
L_front_hand02_02 L_front_hand02_01
L_front_hand03_02 L_front_hand03_01
R_forearm R_humerus
R_front_hand R_forearm
R_weapon_bone R_forearm
R_front_hand01_01 R_front_hand
R_front_hand02_01 R_front_hand
R_front_hand03_01 R_front_hand
R_front_hand01_02 R_front_hand01_01
R_front_hand02_02 R_front_hand02_01
R_front_hand03_02 R_front_hand03_01
null_rope01_connect L_mid_tent01
Rope1_Seg01 null_rope01_connect
Rope1_Seg02 Rope1_Seg01
Rope1_Seg03 Rope1_Seg02
Rope1_Seg04 Rope1_Seg03
Rope1_Seg05 Rope1_Seg04
Rope1_Seg06 Rope1_Seg05
Rope1_Seg07 Rope1_Seg06
Rope1_Seg09 Rope1_Seg07
L_mid_hand01 Rope1_Seg09
L_mid_hand02 Rope1_Seg09
L_mid_hand03 Rope1_Seg09
null_rope02_connect R_mid_tent01
Rope2_Seg01 null_rope02_connect
Rope2_Seg02 Rope2_Seg01
Rope2_Seg03 Rope2_Seg02
Rope2_Seg04 Rope2_Seg03
Rope2_Seg05 Rope2_Seg04
Rope2_Seg06 Rope2_Seg05
Rope2_Seg07 Rope2_Seg06
Rope2_Seg09 Rope2_Seg07
R_mid_hand01 Rope2_Seg09
R_mid_hand02 Rope2_Seg09
R_mid_hand03 Rope2_Seg09
spine02 spine01
spine03 spine02
pelvis spine03
null_rope03_connect pelvis
null_rope04_connect pelvis
Rope3_Seg01 null_rope03_connect
Rope3_Seg02 Rope3_Seg01
Rope3_Seg03 Rope3_Seg02
Rope3_Seg04 Rope3_Seg03
Rope3_Seg05 Rope3_Seg04
Rope3_Seg06 Rope3_Seg05
Rope3_Seg07 Rope3_Seg06
Rope3_Seg08 Rope3_Seg07
Rope3_Seg09 Rope3_Seg08
R_rear_hand01 Rope3_Seg09
R_rear_hand02 Rope3_Seg09
R_rear_hand03 Rope3_Seg09
Rope4_Seg01 null_rope04_connect
Rope4_Seg02 Rope4_Seg01
Rope4_Seg03 Rope4_Seg02
Rope4_Seg04 Rope4_Seg03
Rope4_Seg05 Rope4_Seg04
Rope4_Seg06 Rope4_Seg05
Rope4_Seg07 Rope4_Seg06
Rope4_Seg08 Rope4_Seg07
Rope4_Seg09 Rope4_Seg08
L_rear_hand01 Rope4_Seg09
L_rear_hand02 Rope4_Seg09
L_rear_hand03 Rope4_Seg09
[BasePosition]
#SegmentName Tx, Ty, Tz, Rx, Ry, Rz, BoneLength
MASTER 0.000000 0.000000 0.000000 -90.000000 0.000000 0.000000 10.000000 
root 0.000000 0.000000 0.000000 0.000000 0.000000 0.000000 10.000000 
chest 0.000000 0.000000 0.000000 0.000000 0.000000 0.000000 10.000000 
L_mid_tent01 0.000000 0.000000 0.000000 0.000000 0.000000 0.000000 10.000000 
R_mid_tent01 0.000000 0.000000 0.000000 0.000000 0.000000 0.000000 10.000000 
spine01 0.000000 0.000000 0.000000 0.000000 0.000000 0.000000 10.000000 
Bip01_Neck 0.000000 0.000000 0.000000 0.000000 0.000000 0.000000 10.000000 
L_humerus 0.000000 0.000000 0.000000 0.000000 0.000000 0.000000 10.000000 
R_humerus 0.000000 0.000000 0.000000 0.000000 0.000000 0.000000 10.000000 
weapon_bone 0.000000 0.000000 0.000000 0.000000 0.000000 0.000000 10.000000 
Bip01_Head 0.000000 0.000000 0.000000 0.000000 0.000000 0.000000 10.000000 
eye_left_bone 0.000000 0.000000 0.000000 0.000000 0.000000 0.000000 10.000000 
eye_right_bone 0.000000 0.000000 0.000000 0.000000 0.000000 0.000000 10.000000 
L_forearm 0.000000 0.000000 0.000000 0.000000 0.000000 0.000000 10.000000 
L_front_hand 0.000000 0.000000 0.000000 0.000000 0.000000 0.000000 10.000000 
L_weapon_bone 0.000000 0.000000 0.000000 0.000000 0.000000 0.000000 10.000000 
L_front_hand01_01 0.000000 0.000000 0.000000 0.000000 0.000000 0.000000 10.000000 
L_front_hand02_01 0.000000 0.000000 0.000000 0.000000 0.000000 0.000000 10.000000 
L_front_hand03_01 0.000000 0.000000 0.000000 0.000000 0.000000 0.000000 10.000000 
L_front_hand01_02 0.000000 0.000000 0.000000 0.000000 0.000000 0.000000 10.000000 
L_front_hand02_02 0.000000 0.000000 0.000000 0.000000 0.000000 0.000000 10.000000 
L_front_hand03_02 0.000000 0.000000 0.000000 0.000000 0.000000 0.000000 10.000000 
R_forearm 0.000000 0.000000 0.000000 0.000000 0.000000 0.000000 10.000000 
R_front_hand 0.000000 0.000000 0.000000 0.000000 0.000000 0.000000 10.000000 
R_weapon_bone 0.000000 0.000000 0.000000 0.000000 0.000000 0.000000 10.000000 
R_front_hand01_01 0.000000 0.000000 0.000000 0.000000 0.000000 0.000000 10.000000 
R_front_hand02_01 0.000000 0.000000 0.000000 0.000000 0.000000 0.000000 10.000000 
R_front_hand03_01 0.000000 0.000000 0.000000 0.000000 0.000000 0.000000 10.000000 
R_front_hand01_02 0.000000 0.000000 0.000000 0.000000 0.000000 0.000000 10.000000 
R_front_hand02_02 0.000000 0.000000 0.000000 0.000000 0.000000 0.000000 10.000000 
R_front_hand03_02 0.000000 0.000000 0.000000 0.000000 0.000000 0.000000 10.000000 
null_rope01_connect 0.000000 0.000000 0.000000 0.000000 0.000000 0.000000 10.000000 
Rope1_Seg01 0.000000 0.000000 0.000000 0.000000 0.000000 0.000000 10.000000 
Rope1_Seg02 0.000000 0.000000 0.000000 0.000000 0.000000 0.000000 10.000000 
Rope1_Seg03 0.000000 0.000000 0.000000 0.000000 0.000000 0.000000 10.000000 
Rope1_Seg04 0.000000 0.000000 0.000000 0.000000 0.000000 0.000000 10.000000 
Rope1_Seg05 0.000000 0.000000 0.000000 0.000000 0.000000 0.000000 10.000000 
Rope1_Seg06 0.000000 0.000000 0.000000 0.000000 0.000000 0.000000 10.000000 
Rope1_Seg07 0.000000 0.000000 0.000000 0.000000 0.000000 0.000000 10.000000 
Rope1_Seg09 0.000000 0.000000 0.000000 0.000000 0.000000 0.000000 10.000000 
L_mid_hand01 0.000000 0.000000 0.000000 0.000000 0.000000 0.000000 10.000000 
L_mid_hand02 0.000000 0.000000 0.000000 0.000000 0.000000 0.000000 10.000000 
L_mid_hand03 0.000000 0.000000 0.000000 0.000000 0.000000 0.000000 10.000000 
null_rope02_connect 0.000000 0.000000 0.000000 0.000000 0.000000 0.000000 10.000000 
Rope2_Seg01 0.000000 0.000000 0.000000 0.000000 0.000000 0.000000 10.000000 
Rope2_Seg02 0.000000 0.000000 0.000000 0.000000 0.000000 0.000000 10.000000 
Rope2_Seg03 0.000000 0.000000 0.000000 0.000000 0.000000 0.000000 10.000000 
Rope2_Seg04 0.000000 0.000000 0.000000 0.000000 0.000000 0.000000 10.000000 
Rope2_Seg05 0.000000 0.000000 0.000000 0.000000 0.000000 0.000000 10.000000 
Rope2_Seg06 0.000000 0.000000 0.000000 0.000000 0.000000 0.000000 10.000000 
Rope2_Seg07 0.000000 0.000000 0.000000 0.000000 0.000000 0.000000 10.000000 
Rope2_Seg09 0.000000 0.000000 0.000000 0.000000 0.000000 0.000000 10.000000 
R_mid_hand01 0.000000 0.000000 0.000000 0.000000 0.000000 0.000000 10.000000 
R_mid_hand02 0.000000 0.000000 0.000000 0.000000 0.000000 0.000000 10.000000 
R_mid_hand03 0.000000 0.000000 0.000000 0.000000 0.000000 0.000000 10.000000 
spine02 0.000000 0.000000 0.000000 0.000000 0.000000 0.000000 10.000000 
spine03 0.000000 0.000000 0.000000 0.000000 0.000000 0.000000 10.000000 
pelvis 0.000000 0.000000 0.000000 0.000000 0.000000 0.000000 10.000000 
null_rope03_connect 0.000000 0.000000 0.000000 0.000000 0.000000 0.000000 10.000000 
null_rope04_connect 0.000000 0.000000 0.000000 0.000000 0.000000 0.000000 10.000000 
Rope3_Seg01 0.000000 0.000000 0.000000 0.000000 0.000000 0.000000 10.000000 
Rope3_Seg02 0.000000 0.000000 0.000000 0.000000 0.000000 0.000000 10.000000 
Rope3_Seg03 0.000000 0.000000 0.000000 0.000000 0.000000 0.000000 10.000000 
Rope3_Seg04 0.000000 0.000000 0.000000 0.000000 0.000000 0.000000 10.000000 
Rope3_Seg05 0.000000 0.000000 0.000000 0.000000 0.000000 0.000000 10.000000 
Rope3_Seg06 0.000000 0.000000 0.000000 0.000000 0.000000 0.000000 10.000000 
Rope3_Seg07 0.000000 0.000000 0.000000 0.000000 0.000000 0.000000 10.000000 
Rope3_Seg08 0.000000 0.000000 0.000000 0.000000 0.000000 0.000000 10.000000 
Rope3_Seg09 0.000000 0.000000 0.000000 0.000000 0.000000 0.000000 10.000000 
R_rear_hand01 0.000000 0.000000 0.000000 0.000000 0.000000 0.000000 10.000000 
R_rear_hand02 0.000000 0.000000 0.000000 0.000000 0.000000 0.000000 10.000000 
R_rear_hand03 0.000000 0.000000 0.000000 0.000000 0.000000 0.000000 10.000000 
Rope4_Seg01 0.000000 0.000000 0.000000 0.000000 0.000000 0.000000 10.000000 
Rope4_Seg02 0.000000 0.000000 0.000000 0.000000 0.000000 0.000000 10.000000 
Rope4_Seg03 0.000000 0.000000 0.000000 0.000000 0.000000 0.000000 10.000000 
Rope4_Seg04 0.000000 0.000000 0.000000 0.000000 0.000000 0.000000 10.000000 
Rope4_Seg05 0.000000 0.000000 0.000000 0.000000 0.000000 0.000000 10.000000 
Rope4_Seg06 0.000000 0.000000 0.000000 0.000000 0.000000 0.000000 10.000000 
Rope4_Seg07 0.000000 0.000000 0.000000 0.000000 0.000000 0.000000 10.000000 
Rope4_Seg08 0.000000 0.000000 0.000000 0.000000 0.000000 0.000000 10.000000 
Rope4_Seg09 0.000000 0.000000 0.000000 0.000000 0.000000 0.000000 10.000000 
L_rear_hand01 0.000000 0.000000 0.000000 0.000000 0.000000 0.000000 10.000000 
L_rear_hand02 0.000000 0.000000 0.000000 0.000000 0.000000 0.000000 10.000000 
L_rear_hand03 0.000000 0.000000 0.000000 0.000000 0.000000 0.000000 10.000000 
#Beginning of Data. Separated by tabs
#Fr	Tx	Ty	Tz	Rx	Ry	Rz	SF
[MASTER]
17 0.000003 -0.000068 -2122.532959 0.001660 0.001660 0.001660 2122.532715
18 0.000003 -0.000065 -2338.270996 0.001660 0.001660 0.001660 2338.270752
[root]
17 -16.502298 -17.429504 1463.168701 -97.575172 -24.017012 -90.098152 1463.365601
18 -16.502300 -15.844568 1462.154419 -97.787682 -29.578117 -89.160774 1462.333374
[chest]
17 -84.512650 -34.090519 0.000000 -14.198647 -6.546026 160.678436 91.129311
18 -84.512650 -34.090519 0.000000 -7.547262 -7.681984 160.151169 91.129311
[L_mid_tent01]
17 27.299267 22.178566 -249.918564 1.896070 42.408501 80.610275 252.381516
18 27.299263 22.178581 -249.918564 3.862623 36.229134 81.347603 252.381516
[R_mid_tent01]
17 23.228794 24.509907 226.238495 160.287216 -50.916836 88.350388 228.744751
18 23.228794 24.509907 226.238495 160.432053 -47.061184 87.899742 228.744751
[spine01]
17 -0.361383 -0.195265 0.000000 0.002062 0.001122 32.879829 0.410763
18 -0.361383 -0.195265 0.000000 0.002062 0.001122 32.879829 0.410763
[Bip01_Neck]
17 165.484543 71.581718 0.000119 176.643677 -1.657966 43.431908 180.302734
18 165.484543 71.581718 0.000119 176.643677 -1.657967 43.431911 180.302734
[L_humerus]
17 -13.983130 -135.272980 -120.471481 47.711029 68.335396 170.232193 181.680161
18 -13.983130 -135.272980 -120.471481 57.190006 70.838287 -177.695770 181.680161
[R_humerus]
17 -13.983309 -135.273102 125.287651 -169.625488 -18.703548 -102.592049 184.909012
18 -13.983309 -135.273102 125.287651 -170.489502 -15.750051 -101.354134 184.909012
[weapon_bone]
17 235.964890 -300.705902 0.000000 0.000000 -89.951546 -128.212341 382.234833
18 235.964890 -300.705902 0.000000 0.000000 -89.951546 -128.212341 382.234833
[Bip01_Head]
17 213.326874 186.042175 7.559178 33.220219 6.149198 -43.830616 283.155762
18 213.338852 186.009216 7.986793 33.000233 4.580533 -43.850571 283.154877
[eye_left_bone]
17 -24.626970 125.451866 -64.772606 0.000000 -90.000000 -99.840431 143.318359
18 -24.626970 125.451866 -64.772606 0.000000 -90.000000 -99.840431 143.318359
[eye_right_bone]
17 -24.626970 125.451866 64.327362 0.000000 -89.965736 80.156380 143.117676
18 -24.626970 125.451866 64.327362 0.000000 -89.965736 80.156380 143.117676
[L_forearm]
17 322.776093 0.000000 -0.000119 0.000158 -0.002342 -97.706238 322.776093
18 322.776093 0.000000 -0.000119 0.000151 -0.002342 -97.363823 322.776093
[L_front_hand]
17 241.149185 -0.042021 -3.300071 -178.567078 -1.758488 -30.585697 241.171753
18 241.149185 -0.042021 -3.300071 -178.578781 -1.767038 -30.247442 241.171753
[L_weapon_bone]
17 156.183838 0.000000 0.000000 0.000014 0.000007 0.000001 156.183838
18 156.183838 0.000000 0.000000 0.000014 0.000007 0.000001 156.183838
[L_front_hand01_01]
17 86.095154 20.947098 -0.655860 -0.366594 -0.477154 75.385574 88.609184
18 86.095154 20.947098 -0.655860 -0.366594 -0.477154 75.385574 88.609184
[L_front_hand02_01]
17 86.935165 -11.437475 24.513514 154.399796 -59.883835 -61.369587 91.046425
18 86.935165 -11.437475 24.513514 154.399796 -59.883820 -61.369579 91.046425
[L_front_hand03_01]
17 86.637497 -14.123976 -20.424902 -153.913849 58.118122 -62.702866 90.126129
18 86.637497 -14.123976 -20.424902 -153.913849 58.118122 -62.702866 90.126129
[L_front_hand01_02]
17 71.020905 -0.000179 0.000030 0.000334 -0.002323 -106.342621 71.020905
18 71.020905 -0.000179 0.000030 0.000334 -0.002323 -106.354980 71.020905
[L_front_hand02_02]
17 71.020927 -0.000119 0.000060 0.000334 -0.002323 -106.342621 71.020927
18 71.020927 -0.000119 0.000060 0.000334 -0.002323 -106.354980 71.020927
[L_front_hand03_02]
17 71.020905 -0.000060 0.000060 0.000334 -0.002323 -106.342621 71.020905
18 71.020905 -0.000060 0.000060 0.000334 -0.002323 -106.354980 71.020905
[R_forearm]
17 322.776428 -0.000060 0.000030 0.212623 0.019137 -95.913841 322.776428
18 322.776428 -0.000060 0.000030 0.212675 0.018561 -95.603416 322.776428
[R_front_hand]
17 238.847015 -0.006795 2.210259 -1.939019 -10.790749 -30.049620 238.857239
18 238.847015 -0.006795 2.210259 -2.013987 -10.778630 -29.652018 238.857239
[R_weapon_bone]
17 155.664093 0.002503 -0.000030 0.003487 0.001180 -90.988930 155.664078
18 155.664093 0.002503 -0.000030 0.003487 0.001180 -90.988930 155.664078
[R_front_hand01_01]
17 87.624611 14.231146 22.918642 -154.633499 -59.950619 61.746044 91.683487
18 87.624611 14.231146 22.918642 -154.633484 -59.950619 61.746037 91.683487
[R_front_hand02_01]
17 89.356956 14.367283 -19.491137 154.602661 58.302849 63.744389 92.579636
18 89.356956 14.367283 -19.491137 154.602661 58.302849 63.744389 92.579636
[R_front_hand03_01]
17 87.286232 -22.307278 -0.143439 0.162155 -0.423168 -75.767921 90.091743
18 87.286232 -22.307278 -0.143439 0.162155 -0.423168 -75.767921 90.091743
[R_front_hand01_02]
17 71.020905 0.000060 0.000119 0.002323 -0.000334 106.381714 71.020905
18 71.020905 0.000060 0.000119 0.002323 -0.000334 106.381714 71.020905
[R_front_hand02_02]
17 71.020844 -0.000030 -0.000119 0.002323 -0.000334 106.381714 71.020836
18 71.020844 -0.000030 -0.000119 0.002323 -0.000334 106.381714 71.020836
[R_front_hand03_02]
17 71.020905 0.000000 0.000030 0.002323 -0.000334 106.381714 71.020905
18 71.020905 0.000000 0.000030 0.002323 -0.000334 106.381714 71.020905
[null_rope01_connect]
17 328.732483 0.000000 -0.000238 -145.165237 -40.072937 179.908691 328.732483
18 328.732483 0.000000 -0.000238 -138.147446 -46.597145 178.574615 328.732483
[Rope1_Seg01]
17 0.000028 -0.000050 0.000111 -2.463928 9.164603 -163.715927 0.000125
18 0.000029 -0.000050 0.000118 -2.531581 9.958322 -164.541641 0.000131
[Rope1_Seg02]
17 139.999863 -0.000179 0.000000 -6.856395 3.780430 -25.564022 139.999863
18 139.999863 -0.000179 0.000000 -4.518371 10.240854 -21.639378 139.999863
[Rope1_Seg03]
17 139.999924 0.000060 -0.000060 -1.777221 7.318555 -31.659779 139.999924
18 139.999924 0.000060 -0.000060 -3.174846 14.850576 -26.568512 139.999924
[Rope1_Seg04]
17 139.999924 -0.000060 -0.000119 3.770887 7.103129 -22.521389 139.999924
18 139.999924 -0.000060 -0.000119 3.553503 9.159356 -23.203079 139.999924
[Rope1_Seg05]
17 139.999832 0.000119 -0.000060 2.546615 1.691918 -6.484998 139.999832
18 139.999832 0.000119 -0.000060 4.221178 1.936600 -8.324316 139.999832
[Rope1_Seg06]
17 139.999954 0.000119 -0.000060 1.628148 0.586000 -3.165917 139.999954
18 139.999954 0.000119 -0.000060 2.498409 0.795309 -3.934428 139.999954
[Rope1_Seg07]
17 139.999985 0.000060 0.000000 1.104725 0.297082 -1.909646 139.999985
18 139.999985 0.000060 0.000000 1.755175 0.369316 -2.362128 139.999985
[Rope1_Seg09]
17 121.602913 0.000119 -0.000089 -89.793175 -1.359789 0.847147 121.602913
18 121.602913 0.000119 -0.000089 -89.793175 -1.359789 0.847147 121.602913
[L_mid_hand01]
17 103.859421 1.038730 8.195221 130.544388 -67.584534 -38.866955 104.187431
18 103.859421 1.038730 8.195221 130.544373 -67.584534 -38.866943 104.187431
[L_mid_hand02]
17 105.572853 -4.139662 -10.864139 -168.923172 43.409309 -73.498886 106.211075
18 105.572853 -4.139662 -10.864139 -168.923172 43.409309 -73.498886 106.211075
[L_mid_hand03]
17 104.641464 17.579376 -3.913581 -6.012626 17.808172 74.893661 106.179977
18 104.641464 17.579376 -3.913581 -6.012627 17.808174 74.893669 106.179977
[null_rope02_connect]
17 328.732849 0.000179 -0.000119 -126.655685 43.189095 19.848471 328.732849
18 328.732849 0.000179 -0.000119 -118.349884 45.958691 23.208620 328.732849
[Rope2_Seg01]
17 -0.000007 0.000104 0.000000 49.416420 46.240383 -17.779081 0.000104
18 -0.000003 0.000104 0.000000 47.615940 42.742352 -20.250317 0.000104
[Rope2_Seg02]
17 139.999741 -0.000060 -0.000119 -0.897729 6.693087 -5.200075 139.999756
18 139.999741 -0.000060 -0.000119 -1.351934 6.556781 -5.958933 139.999756
[Rope2_Seg03]
17 140.000107 0.000030 0.000000 -1.066675 10.497477 -8.039509 140.000107
18 140.000107 0.000030 0.000000 -1.464834 10.131063 -8.885893 140.000107
[Rope2_Seg04]
17 139.999802 0.000000 -0.000060 -0.942155 15.368958 -9.127885 139.999802
18 139.999802 0.000000 -0.000060 -0.992240 14.883797 -8.665125 139.999802
[Rope2_Seg05]
17 139.999985 -0.000060 0.000119 1.794741 16.533546 -15.335102 139.999985
18 139.999985 -0.000060 0.000119 2.108101 13.917388 -16.580055 139.999985
[Rope2_Seg06]
17 139.999893 -0.000030 -0.000119 24.982038 16.638517 -27.548422 139.999893
18 139.999893 -0.000030 -0.000119 24.981346 12.425553 -33.420586 139.999893
[Rope2_Seg07]
17 139.999893 0.000060 -0.000060 36.603825 1.879850 -18.364399 139.999893
18 139.999893 0.000060 -0.000060 27.377203 -1.331105 -19.873419 139.999893
[Rope2_Seg09]
17 121.338966 0.000089 -0.000060 33.793236 -1.359788 -0.847141 121.338966
18 121.338966 0.000089 -0.000060 33.793236 -1.359788 -0.847141 121.338966
[R_mid_hand01]
17 104.680779 11.144459 -10.335981 -16.212063 45.237247 70.462852 105.778534
18 104.680779 11.144459 -10.335981 -16.212063 45.237247 70.462852 105.778534
[R_mid_hand02]
17 104.070427 2.443552 8.231699 49.067368 -67.749794 39.286469 104.424065
18 104.070427 2.443552 8.231699 49.067368 -67.749771 39.286453 104.424065
[R_mid_hand03]
17 106.028137 -11.221827 -5.996406 -177.101105 15.551026 -76.585571 106.788818
18 106.028137 -11.221827 -5.996406 -177.101105 15.551026 -76.585571 106.788818
[spine02]
17 129.756927 0.001550 0.000119 -1.193996 -4.046144 9.231680 129.756927
18 129.756927 0.001550 0.000119 -1.190725 -4.026906 9.184137 129.756927
[spine03]
17 78.613968 0.083486 -4.898970 0.925416 4.479756 2.689449 78.766502
18 78.613976 0.083426 -4.898971 0.927554 4.446466 2.722239 78.766510
[pelvis]
17 169.435242 0.051022 0.000000 0.027258 -0.067263 -13.820415 169.435257
18 169.435242 0.051022 0.000000 0.026250 -0.079850 -13.760636 169.435257
[null_rope03_connect]
17 -1.257226 -2.466202 137.391083 -155.415070 -81.766464 -121.453415 137.418976
18 -1.257226 -2.466202 137.391083 -155.860931 -81.998009 -115.431664 137.418976
[null_rope04_connect]
17 -1.259640 -2.480268 -137.844437 -155.415070 -81.766464 -121.453415 137.872513
18 -1.259640 -2.480268 -137.844437 -155.860931 -81.998009 -115.431664 137.872513
[Rope3_Seg01]
17 -0.000010 0.000014 0.000014 3.916080 -21.842709 -44.891933 0.000022
18 -0.000011 0.000015 0.000024 -1.213470 -28.580616 -40.417721 0.000030
[Rope3_Seg02]
17 139.999924 -0.000119 0.000060 -1.271832 -4.704723 -0.569819 139.999924
18 139.999924 -0.000119 0.000060 -0.749143 -3.249323 -0.917184 139.999924
[Rope3_Seg03]
17 139.999924 -0.000119 0.000119 -1.001821 -4.545645 -0.656500 139.999924
18 139.999924 -0.000119 0.000119 -0.549978 -2.866594 -0.889946 139.999924
[Rope3_Seg04]
17 139.999924 0.000119 0.000000 -0.355870 -1.884340 -0.516811 139.999924
18 139.999924 0.000119 0.000000 0.470593 1.252106 -0.992321 139.999924
[Rope3_Seg05]
17 139.999924 -0.000238 0.000060 -0.590236 -4.360295 -0.703429 139.999924
18 139.999924 -0.000238 0.000060 -0.571678 -3.528605 -0.663573 139.999924
[Rope3_Seg06]
17 139.999893 -0.000119 -0.000060 -0.611301 -10.630266 -1.367050 139.999893
18 139.999893 -0.000119 -0.000060 -1.561396 -13.065110 -0.392028 139.999893
[Rope3_Seg07]
17 139.999771 0.000060 -0.000119 0.626241 -12.438603 -1.713367 139.999771
18 139.999771 0.000060 -0.000119 0.113830 -15.465469 -0.752448 139.999771
[Rope3_Seg08]
17 139.999985 -0.000060 0.000000 1.210789 -7.397392 -0.993528 139.999985
18 139.999985 -0.000060 0.000000 1.166718 -8.522784 -0.526673 139.999985
[Rope3_Seg09]
17 90.185997 -0.000179 -0.000060 89.793228 -1.359877 -0.847183 90.185997
18 90.185997 -0.000179 -0.000060 89.793228 -1.359877 -0.847183 90.185997
[R_rear_hand01]
17 103.366196 -6.073594 -10.757982 -177.714203 24.565960 -73.910950 104.101845
18 103.366196 -6.073594 -10.757982 -177.714203 24.565960 -73.910950 104.101845
[R_rear_hand02]
17 100.509819 12.039542 -7.992327 -12.874827 36.868492 72.167221 101.543350
18 100.509819 12.039542 -7.992327 -12.874829 36.868488 72.167213 101.543350
[R_rear_hand03]
17 101.539970 5.215704 5.435467 71.484581 -71.816628 21.513813 101.819031
18 101.539970 5.215704 5.435467 71.484581 -71.816628 21.513813 101.819031
[Rope4_Seg01]
17 0.000000 0.000000 0.000000 -94.518654 -30.617184 -115.146652 0.000000
18 0.000000 0.000000 0.000000 -94.637245 -34.384483 -114.706596 0.000000
[Rope4_Seg02]
17 139.999985 0.000060 0.000119 -0.031768 8.422928 10.134004 139.999985
18 139.999985 0.000060 0.000119 0.307680 9.663019 9.020543 139.999985
[Rope4_Seg03]
17 139.999924 0.000000 -0.000238 -2.522018 14.767445 18.100798 139.999924
18 139.999924 0.000000 -0.000238 -0.857663 16.498859 15.230651 139.999924
[Rope4_Seg04]
17 139.999985 0.000000 0.000119 -10.184162 17.445580 19.447977 139.999985
18 139.999985 0.000000 0.000119 -1.743054 20.595743 13.599252 139.999985
[Rope4_Seg05]
17 139.999802 -0.000060 -0.000119 -43.137581 4.215021 23.770748 139.999802
18 139.999802 -0.000060 -0.000119 -43.876068 9.234728 21.631067 139.999802
[Rope4_Seg06]
17 139.999924 0.000000 0.000060 -32.786629 -17.490469 17.426142 139.999924
18 139.999924 0.000000 0.000060 -46.857883 -17.900421 23.197342 139.999924
[Rope4_Seg07]
17 139.999802 0.000000 0.000000 -7.447558 -11.534074 3.639330 139.999802
18 139.999802 0.000000 0.000000 -7.883833 -13.871712 2.914884 139.999802
[Rope4_Seg08]
17 139.999924 0.000000 0.000119 -3.974234 -5.611109 1.187424 139.999924
18 139.999924 0.000000 0.000119 -3.813235 -6.281749 0.726398 139.999924
[Rope4_Seg09]
17 90.185791 0.000060 0.000060 -135.617828 2.228885 0.850567 90.185791
18 90.185791 0.000060 0.000060 -135.617828 2.228885 0.850567 90.185791
[L_rear_hand01]
17 101.696655 -8.392275 -7.654577 -12.874827 -36.868492 107.832764 102.329041
18 101.696655 -8.392275 -7.654577 -12.874829 -36.868488 107.832764 102.329041
[L_rear_hand02]
17 102.726799 -1.568258 5.773216 71.484581 71.816628 158.486160 102.900848
18 102.726799 -1.568258 5.773216 71.484581 71.816628 158.486160 102.900848
[L_rear_hand03]
17 104.552910 9.721220 -10.420293 -177.714203 -24.565960 -106.089035 105.519653
18 104.552910 9.721220 -10.420293 -177.714203 -24.565960 -106.089035 105.519653
